<svg xmlns="http://www.w3.org/2000/svg" xmlns:xlink="http://www.w3.org/1999/xlink" width="500" zoomAndPan="magnify" viewBox="0 0 375 103.5" height="138" preserveAspectRatio="xMidYMid meet" version="1.0"><path fill="rgb(1.179504%, 35.688782%, 85.488892%)" d="M 190.101562 49.511719 L 184.179688 49.511719 L 184.179688 26.414062 C 184.148438 24.128906 184.234375 21.84375 184.4375 19.566406 C 184.246094 20.714844 183.898438 21.8125 183.402344 22.863281 L 172.554688 49.726562 L 168.421875 49.726562 L 157.554688 23.132812 L 156.519531 19.550781 C 156.777344 21.070312 156.777344 23.351562 156.777344 26.652344 L 156.777344 49.78125 L 151.09375 49.78125 L 151.09375 14.003906 L 159.617188 14.003906 L 169.183594 37.847656 L 170.730469 41.910156 C 171.125 40.429688 171.640625 38.992188 172.277344 37.597656 L 182.09375 13.753906 L 190.363281 13.753906 Z M 201.210938 18.566406 C 200.195312 18.617188 199.335938 18.28125 198.628906 17.550781 C 197.933594 17 197.550781 16.152344 197.59375 15.269531 C 197.496094 14.378906 197.890625 13.503906 198.628906 12.988281 C 199.382812 12.378906 200.242188 12.042969 201.210938 11.972656 C 202.226562 11.921875 203.085938 12.257812 203.792969 12.988281 C 204.488281 13.539062 204.871094 14.386719 204.828125 15.269531 C 204.925781 16.160156 204.53125 17.035156 203.792969 17.550781 C 203.085938 18.28125 202.226562 18.617188 201.210938 18.566406 Z M 204.050781 49.511719 L 198.109375 49.511719 L 198.109375 23.894531 L 204.050781 23.894531 Z M 230.648438 48.503906 C 228.582031 49.773438 226 50.296875 223.160156 50.296875 C 219.285156 50.296875 216.183594 49.03125 213.855469 46.746094 C 211.53125 44.457031 210.269531 41.421875 210.269531 37.609375 C 210.269531 33.300781 211.5625 30 214.144531 27.460938 C 216.726562 24.921875 220.085938 23.65625 224.472656 23.65625 C 226.625 23.660156 228.691406 24.082031 230.671875 24.921875 L 230.671875 30.238281 C 228.984375 28.984375 227.089844 28.308594 224.988281 28.207031 C 222.414062 28.207031 220.335938 28.964844 218.789062 30.746094 C 217.992188 31.648438 217.394531 32.667969 216.992188 33.804688 C 216.59375 34.941406 216.414062 36.109375 216.464844 37.3125 C 216.464844 39.847656 217.242188 42.128906 218.789062 43.652344 C 220.382812 45.175781 222.523438 45.996094 224.730469 45.933594 C 226.917969 45.90625 229.027344 45.09375 230.671875 43.652344 L 230.671875 48.507812 Z M 251.570312 29.484375 C 250.632812 28.9375 249.558594 28.671875 248.464844 28.726562 C 246.671875 28.726562 245.363281 29.484375 244.074219 31.007812 C 242.785156 32.527344 242.277344 34.589844 242.277344 37.347656 L 242.277344 49.527344 L 236.335938 49.527344 L 236.335938 23.894531 L 242.277344 23.894531 L 242.277344 29.222656 C 242.773438 27.566406 243.636719 26.128906 244.859375 24.910156 C 245.988281 23.890625 247.46875 23.347656 248.992188 23.386719 C 249.804688 23.375 250.582031 23.546875 251.316406 23.894531 Z M 267.320312 50.296875 C 263.1875 50.296875 260.085938 49.03125 257.753906 46.742188 C 255.421875 44.457031 254.167969 41.160156 254.167969 37.367188 C 254.167969 33.054688 255.460938 29.753906 258.042969 27.21875 C 260.625 24.679688 263.984375 23.636719 268.113281 23.636719 C 272.242188 23.636719 275.347656 24.902344 277.679688 27.21875 C 280.007812 29.535156 281.007812 32.78125 281.007812 37.089844 C 281.117188 40.726562 279.835938 44.261719 277.421875 46.984375 C 274.535156 49.214844 270.96875 50.386719 267.320312 50.3125 Z M 267.578125 27.972656 C 265.253906 27.972656 263.445312 28.734375 262.15625 30.253906 C 260.863281 31.777344 260.085938 34.058594 260.085938 36.820312 C 260.085938 39.585938 260.863281 41.636719 262.15625 43.160156 C 263.445312 44.683594 265.257812 45.441406 267.578125 45.441406 C 269.894531 45.441406 271.707031 44.683594 272.996094 43.160156 C 274.289062 41.640625 274.792969 39.609375 274.792969 36.59375 C 274.792969 33.804688 274.277344 31.527344 272.996094 30.027344 C 272.265625 29.339844 271.433594 28.816406 270.492188 28.464844 C 269.550781 28.113281 268.578125 27.957031 267.574219 27.996094 Z M 285.144531 48.753906 L 285.144531 43.417969 C 287.46875 44.9375 289.792969 45.953125 292.378906 45.953125 C 295.992188 45.953125 297.796875 44.9375 297.796875 42.910156 C 297.746094 42.363281 297.574219 41.855469 297.285156 41.386719 C 296.976562 40.917969 296.523438 40.558594 295.992188 40.371094 C 295.414062 40.074219 294.816406 39.820312 294.199219 39.613281 L 291.875 38.855469 C 290.90625 38.480469 289.960938 38.058594 289.035156 37.589844 C 288.300781 37.144531 287.609375 36.636719 286.964844 36.066406 C 286.382812 35.488281 285.953125 34.808594 285.675781 34.039062 C 285.351562 33.222656 285.183594 32.375 285.160156 31.5 C 285.144531 30.335938 285.402344 29.238281 285.9375 28.207031 C 286.453125 27.179688 287.226562 26.417969 288.261719 25.925781 C 289.296875 25.167969 290.332031 24.910156 291.621094 24.402344 C 292.898438 24.109375 294.1875 23.9375 295.496094 23.894531 C 297.714844 23.820312 299.863281 24.15625 301.953125 24.910156 L 301.953125 29.992188 C 300.082031 28.722656 298.015625 28.125 295.753906 28.199219 C 295.046875 28.140625 294.355469 28.222656 293.683594 28.449219 C 293.171875 28.703125 292.652344 28.703125 292.136719 28.957031 C 291.675781 29.15625 291.308594 29.515625 291.101562 29.972656 C 290.894531 30.359375 290.804688 30.800781 290.84375 31.238281 C 290.804688 31.765625 290.886719 32.273438 291.101562 32.761719 C 291.3125 33.234375 291.660156 33.570312 292.136719 33.773438 C 292.714844 34.074219 293.3125 34.328125 293.929688 34.535156 C 294.707031 34.785156 295.222656 35.039062 296.253906 35.292969 C 297.238281 35.824219 298.269531 36.246094 299.34375 36.558594 C 300.378906 36.808594 300.894531 37.574219 301.667969 38.082031 C 302.246094 38.710938 302.761719 39.386719 303.21875 40.109375 C 303.539062 41.011719 303.710938 41.941406 303.734375 42.898438 C 303.734375 44.164062 303.476562 45.433594 302.699219 46.191406 C 302.121094 47.160156 301.347656 47.925781 300.378906 48.5 C 299.222656 49.097656 298.027344 49.605469 296.792969 50.019531 C 292.882812 51.007812 288.746094 50.554688 285.140625 48.75 Z M 321.058594 50.296875 C 316.925781 50.296875 313.824219 49.03125 311.492188 46.742188 C 309.160156 44.457031 307.90625 41.160156 307.90625 37.367188 C 307.90625 33.054688 309.199219 29.753906 311.78125 27.21875 C 314.363281 24.679688 317.722656 23.636719 321.851562 23.636719 C 325.980469 23.636719 329.085938 24.902344 331.414062 27.21875 C 333.746094 29.535156 334.773438 32.800781 334.773438 37.109375 C 334.882812 40.742188 333.601562 44.28125 331.1875 47 C 329.726562 48.101562 328.125 48.933594 326.382812 49.5 C 324.640625 50.0625 322.855469 50.332031 321.027344 50.304688 Z M 321.3125 27.972656 C 318.992188 27.972656 317.183594 28.734375 315.894531 30.253906 C 314.601562 31.777344 313.824219 34.058594 313.824219 36.820312 C 313.824219 39.585938 314.601562 41.636719 315.894531 43.160156 C 317.183594 44.683594 318.996094 45.441406 321.3125 45.441406 C 323.632812 45.441406 325.445312 44.683594 326.734375 43.160156 C 328.023438 41.640625 328.53125 39.609375 328.53125 36.59375 C 328.53125 33.804688 328.015625 31.527344 326.734375 30.027344 C 326.007812 29.328125 325.171875 28.800781 324.230469 28.441406 C 323.285156 28.082031 322.308594 27.917969 321.300781 27.953125 Z M 355.128906 16.539062 C 354.257812 16.011719 353.308594 15.761719 352.289062 15.78125 C 349.449219 15.78125 347.898438 17.304688 347.898438 20.597656 L 347.898438 24.152344 L 353.839844 24.152344 L 353.839844 28.71875 L 347.898438 28.71875 L 347.898438 49.789062 L 341.980469 49.789062 L 341.980469 28.714844 L 337.585938 28.714844 L 337.585938 24.144531 L 341.980469 24.144531 L 341.980469 20.085938 C 341.980469 17.296875 342.753906 15.269531 344.554688 13.746094 C 345.257812 13.203125 346.019531 12.753906 346.835938 12.394531 C 347.648438 12.035156 348.492188 11.777344 349.371094 11.621094 C 350.246094 11.464844 351.128906 11.417969 352.019531 11.472656 C 352.90625 11.527344 353.773438 11.6875 354.625 11.953125 L 354.625 16.519531 L 355.121094 16.519531 Z M 372.191406 49.261719 C 371.15625 49.765625 369.609375 50.019531 367.539062 50.019531 C 362.375 50.019531 360.050781 47.738281 360.050781 42.917969 L 360.050781 28.464844 L 355.65625 28.464844 L 355.65625 23.894531 L 360.050781 23.894531 L 360.050781 18.058594 L 365.992188 16.535156 L 365.992188 24.148438 L 372.191406 24.148438 L 372.191406 28.714844 L 365.992188 28.714844 L 365.992188 41.417969 C 365.90625 42.597656 366.167969 43.695312 366.769531 44.714844 C 367.285156 45.472656 368.316406 45.730469 369.609375 45.730469 C 370.550781 45.742188 371.410156 45.480469 372.183594 44.941406 L 372.183594 49.25 Z M 187.300781 102.195312 L 180.582031 102.195312 L 177.222656 93.066406 L 162.757812 93.066406 L 159.65625 102.199219 L 152.941406 102.199219 L 166.628906 66.433594 L 173.332031 66.433594 Z M 175.675781 88.242188 L 170.511719 74.039062 C 170.285156 73.292969 170.113281 72.53125 170 71.757812 C 169.882812 72.53125 169.710938 73.292969 169.484375 74.039062 L 164.578125 88.242188 Z M 210.835938 79.09375 L 196.886719 97.601562 L 210.832031 97.601562 L 210.832031 102.171875 L 188.59375 102.171875 L 188.59375 99.933594 L 203.066406 81.144531 L 190.15625 81.144531 L 190.15625 76.578125 L 211.078125 76.578125 L 211.078125 79.097656 Z M 238.699219 102.195312 L 232.757812 102.195312 L 232.757812 98.140625 C 232.371094 98.859375 231.894531 99.511719 231.328125 100.09375 C 230.757812 100.679688 230.121094 101.175781 229.410156 101.578125 C 228.703125 101.980469 227.953125 102.28125 227.160156 102.472656 C 226.367188 102.664062 225.5625 102.742188 224.746094 102.707031 C 218.546875 102.707031 215.445312 99.15625 215.445312 91.800781 L 215.445312 76.570312 L 221.386719 76.570312 L 221.386719 91.28125 C 221.386719 95.847656 223.195312 98.128906 226.808594 98.128906 C 227.636719 98.164062 228.433594 98.023438 229.199219 97.710938 C 229.96875 97.398438 230.632812 96.941406 231.203125 96.339844 C 232.398438 94.859375 232.996094 93.167969 232.996094 91.265625 L 232.996094 76.570312 L 238.929688 76.570312 Z M 261.429688 82.15625 C 260.492188 81.609375 259.417969 81.347656 258.324219 81.398438 C 256.53125 81.398438 255.222656 82.15625 253.933594 83.679688 C 252.644531 85.203125 252.136719 87.261719 252.136719 90.019531 L 252.136719 102.199219 L 246.195312 102.199219 L 246.195312 76.582031 L 252.136719 76.582031 L 252.136719 81.90625 C 252.632812 80.25 253.496094 78.8125 254.71875 77.59375 C 255.839844 76.585938 257.292969 76.042969 258.808594 76.074219 C 259.621094 76.0625 260.398438 76.230469 261.132812 76.582031 Z M 287.773438 91.035156 L 269.953125 91.035156 C 269.953125 93.316406 270.730469 95.34375 272.277344 96.617188 C 273.570312 97.882812 275.636719 98.648438 278.21875 98.648438 C 279.621094 98.679688 280.988281 98.476562 282.324219 98.039062 C 283.65625 97.605469 284.878906 96.960938 285.992188 96.109375 L 285.992188 100.675781 C 283.648438 102.210938 280.539062 102.976562 276.667969 102.976562 C 274.976562 103.03125 273.347656 102.75 271.773438 102.125 C 270.203125 101.503906 268.820312 100.59375 267.628906 99.394531 C 265.304688 97.113281 264.269531 93.8125 264.269531 89.5 C 264.207031 87.722656 264.488281 85.996094 265.109375 84.328125 C 265.730469 82.65625 266.644531 81.167969 267.855469 79.859375 C 269.015625 78.601562 270.382812 77.640625 271.960938 76.976562 C 273.539062 76.308594 275.183594 76 276.894531 76.050781 C 280.480469 76.050781 283.09375 77.066406 285.160156 79.347656 C 287.230469 81.625 288 84.671875 288 88.722656 Z M 282.089844 86.976562 C 282.089844 84.945312 281.574219 83.171875 280.539062 82.15625 C 280.039062 81.539062 279.425781 81.074219 278.695312 80.757812 C 277.964844 80.441406 277.203125 80.308594 276.410156 80.367188 C 275.582031 80.332031 274.785156 80.472656 274.019531 80.785156 C 273.25 81.097656 272.582031 81.554688 272.015625 82.15625 C 270.726562 83.421875 270.222656 84.945312 269.949219 86.972656 Z M 282.089844 86.976562 " fill-opacity="1" fill-rule="nonzero"/><path fill="rgb(1.179504%, 35.688782%, 85.488892%)" d="M 83.3125 15.308594 L 64.050781 54.054688 L 97.96875 93.308594 L 35.03125 100.445312 L 132.691406 101.464844 Z M 79.511719 0.015625 L 35.296875 36.976562 L 2.472656 92.289062 L 30.414062 89.492188 Z M 79.511719 0.015625 " fill-opacity="1" fill-rule="evenodd"/></svg>