<?xml version="1.0" encoding="UTF-8"?>
<svg xmlns="http://www.w3.org/2000/svg" xmlns:xlink="http://www.w3.org/1999/xlink" width="150pt" height="149.999998pt" viewBox="0 0 150 149.999998" version="1.2">
<defs>
<clipPath id="clip1">
  <path d="M 7.5 2.015625 L 142.5 2.015625 L 142.5 150 L 7.5 150 Z M 7.5 2.015625 "/>
</clipPath>
</defs>
<g id="surface1">
<g clip-path="url(#clip1)" clip-rule="nonzero">
<path style=" stroke:none;fill-rule:nonzero;fill:rgb(36.468506%,25.099182%,21.569824%);fill-opacity:1;" d="M 142.40625 51.960938 C 142.40625 128.945312 75 152.226562 75 152.226562 C 75 152.226562 7.59375 128.945312 7.59375 51.960938 C 7.59375 42.574219 8.34375 34.6875 9.09375 28.300781 C 10.214844 18.914062 16.582031 11.402344 25.570312 9.148438 C 37.179688 5.769531 55.527344 2.015625 75 2.015625 C 94.472656 2.015625 112.820312 5.769531 124.804688 9.148438 C 133.792969 11.402344 140.160156 19.289062 141.28125 28.300781 C 141.65625 34.6875 142.40625 42.949219 142.40625 51.960938 Z M 142.40625 51.960938 "/>
<path style=" stroke:none;fill-rule:nonzero;fill:rgb(29.798889%,68.629456%,31.369019%);fill-opacity:1;" d="M 75 13.28125 C 93.347656 13.28125 110.574219 17.035156 121.808594 20.039062 C 126.304688 21.167969 129.296875 24.921875 130.046875 29.804688 C 130.796875 36.941406 131.171875 44.449219 131.171875 51.960938 C 131.171875 110.542969 88.105469 134.203125 75 139.835938 C 61.894531 133.824219 18.828125 110.167969 18.828125 51.960938 C 18.828125 44.449219 19.203125 36.941406 19.953125 29.804688 C 20.328125 24.921875 23.695312 21.167969 28.191406 20.039062 C 39.425781 17.035156 56.652344 13.28125 75 13.28125 M 75 2.015625 C 55.527344 2.015625 37.179688 5.769531 25.195312 9.148438 C 16.582031 11.402344 9.839844 19.289062 9.09375 28.300781 C 8.34375 34.6875 7.59375 42.949219 7.59375 51.960938 C 7.59375 128.945312 75 152.226562 75 152.226562 C 75 152.226562 142.40625 128.945312 142.40625 51.960938 C 142.40625 42.574219 141.65625 34.6875 140.90625 28.300781 C 139.785156 18.914062 133.417969 11.402344 124.429688 9.148438 C 112.820312 5.769531 94.472656 2.015625 75 2.015625 Z M 75 2.015625 "/>
</g>
<path style=" stroke:none;fill-rule:nonzero;fill:rgb(86.268616%,92.939758%,78.42865%);fill-opacity:1;" d="M 71.253906 92.140625 L 78.746094 92.140625 L 78.746094 122.183594 L 71.253906 122.183594 Z M 71.253906 92.140625 "/>
<path style=" stroke:none;fill-rule:nonzero;fill:rgb(29.798889%,68.629456%,31.369019%);fill-opacity:1;" d="M 75 24.546875 C 75 24.546875 52.53125 43.324219 52.53125 73.367188 C 52.53125 92.894531 64.890625 105.285156 71.253906 110.917969 L 75 99.652344 L 78.746094 110.917969 C 85.109375 105.285156 97.46875 92.894531 97.46875 73.367188 C 97.46875 43.324219 75 24.546875 75 24.546875 Z M 75 24.546875 "/>
<path style=" stroke:none;fill-rule:nonzero;fill:rgb(50.588989%,78.039551%,51.759338%);fill-opacity:1;" d="M 75 24.546875 C 75 24.546875 52.53125 43.324219 52.53125 73.367188 C 52.53125 92.894531 64.890625 105.285156 71.253906 110.917969 L 75 99.652344 Z M 75 24.546875 "/>
</g>
</svg>
