<?xml version="1.0" encoding="UTF-8"?>
<svg xmlns="http://www.w3.org/2000/svg" xmlns:xlink="http://www.w3.org/1999/xlink" width="150pt" height="149.999998pt" viewBox="0 0 150 149.999998" version="1.2">
<defs>
<clipPath id="clip1">
  <path d="M 1 2.675781 L 105 2.675781 L 105 114 L 1 114 Z M 1 2.675781 "/>
</clipPath>
<clipPath id="clip2">
  <path d="M 43 36 L 147 36 L 147 147.425781 L 43 147.425781 Z M 43 36 "/>
</clipPath>
</defs>
<g id="surface1">
<g clip-path="url(#clip1)" clip-rule="nonzero">
<path style=" stroke:none;fill-rule:nonzero;fill:rgb(0.779724%,46.669006%,74.119568%);fill-opacity:1;" d="M 76.117188 2.675781 C 70.203125 2.695312 66.101562 3.214844 61.144531 4.074219 C 46.507812 6.628906 43.839844 11.992188 43.839844 21.875 L 43.839844 36.984375 L 78.078125 36.984375 L 78.078125 44.605469 L 25.992188 44.605469 C 15.964844 44.605469 7.1875 49.339844 4.40625 60.6875 C 1.265625 73.714844 1.125 81.871094 4.40625 95.472656 C 6.898438 105.617188 12.386719 113.222656 22.417969 113.222656 L 36.234375 113.222656 L 36.234375 93.765625 C 36.234375 82.460938 46.453125 71.289062 58.164062 71.289062 L 85.6875 71.289062 C 95.285156 71.289062 104.707031 64.191406 104.707031 54.605469 L 104.707031 21.875 C 104.707031 12.578125 98.015625 5.625 88.664062 4.066406 C 88.894531 4.042969 81.984375 2.652344 76.117188 2.675781 Z M 57.15625 17.921875 C 60.28125 17.921875 62.863281 20.503906 62.863281 23.648438 C 62.863281 26.824219 60.28125 29.359375 57.15625 29.359375 C 53.972656 29.359375 51.453125 26.828125 51.453125 23.648438 C 51.453125 20.515625 53.972656 17.921875 57.15625 17.921875 Z M 57.15625 17.921875 "/>
</g>
<g clip-path="url(#clip2)" clip-rule="nonzero">
<path style=" stroke:none;fill-rule:nonzero;fill:rgb(100%,75.689697%,2.749634%);fill-opacity:1;" d="M 72.429688 147.53125 C 78.347656 147.511719 82.445312 146.988281 87.402344 146.132812 C 102.042969 143.578125 104.707031 138.214844 104.707031 128.328125 L 104.707031 113.222656 L 70.472656 113.222656 L 70.472656 105.597656 L 122.5625 105.597656 C 132.589844 105.597656 141.363281 100.863281 144.144531 89.515625 C 147.285156 76.488281 147.425781 68.332031 144.144531 54.730469 C 141.648438 44.585938 136.160156 36.984375 126.128906 36.984375 L 112.3125 36.984375 L 112.3125 56.4375 C 112.3125 67.746094 102.09375 78.914062 90.386719 78.914062 L 62.859375 78.914062 C 53.261719 78.914062 43.839844 86.011719 43.839844 95.597656 L 43.839844 128.328125 C 43.839844 137.625 50.53125 144.578125 59.886719 146.140625 C 59.652344 146.160156 66.566406 147.554688 72.429688 147.53125 Z M 91.394531 132.28125 C 88.269531 132.28125 85.6875 129.703125 85.6875 126.558594 C 85.6875 123.382812 88.269531 120.847656 91.394531 120.847656 C 94.578125 120.847656 97.101562 123.378906 97.101562 126.558594 C 97.101562 129.691406 94.574219 132.28125 91.394531 132.28125 Z M 91.394531 132.28125 "/>
</g>
</g>
</svg>
