<?xml version="1.0" encoding="UTF-8"?>
<svg xmlns="http://www.w3.org/2000/svg" xmlns:xlink="http://www.w3.org/1999/xlink" width="100pt" height="100pt" viewBox="0 0 900 899.99999" version="1.2">
<defs>
<clipPath id="clip1">
  <path d="M 47.25 0 L 852.75 0 L 852.75 900 L 47.25 900 Z M 47.25 0 "/>
</clipPath>
</defs>
<g id="surface1">
<g clip-path="url(#clip1)" clip-rule="nonzero">
<path style=" stroke:none;fill-rule:nonzero;fill:rgb(0.779724%,46.669006%,74.119568%);fill-opacity:1;" d="M 852.632812 0 L 47.367188 0 L 118.421875 805.261719 L 450 900 L 781.578125 805.261719 Z M 852.632812 0 "/>
</g>
<path style=" stroke:none;fill-rule:nonzero;fill:rgb(1.179504%,60.778809%,89.7995%);fill-opacity:1;" d="M 450 71.050781 L 450 826.578125 L 715.261719 750.789062 L 774.472656 71.050781 Z M 450 71.050781 "/>
<path style=" stroke:none;fill-rule:nonzero;fill:rgb(100%,100%,100%);fill-opacity:1;" d="M 665.527344 189.472656 L 450 189.472656 L 450 284.210938 L 566.050781 284.210938 L 558.949219 378.949219 L 450 378.949219 L 450 473.683594 L 554.210938 473.683594 L 547.105469 580.261719 L 450 613.421875 L 450 712.894531 L 637.105469 651.316406 L 653.683594 378.949219 Z M 665.527344 189.472656 "/>
<path style=" stroke:none;fill-rule:nonzero;fill:rgb(93.328857%,93.328857%,93.328857%);fill-opacity:1;" d="M 450 189.472656 L 450 284.210938 L 239.210938 284.210938 L 232.105469 189.472656 Z M 341.050781 378.949219 L 345.789062 473.683594 L 450 473.683594 L 450 378.949219 Z M 350.527344 521.050781 L 255.789062 521.050781 L 262.894531 651.316406 L 450 712.894531 L 450 613.421875 L 352.894531 580.261719 Z M 350.527344 521.050781 "/>
</g>
</svg>
