<?xml version="1.0" encoding="UTF-8"?>
<svg xmlns="http://www.w3.org/2000/svg" xmlns:xlink="http://www.w3.org/1999/xlink" width="900pt" height="899.99999pt" viewBox="0 0 900 899.99999" version="1.2">
<g id="surface1">
<path style=" stroke:none;fill-rule:nonzero;fill:rgb(87.059021%,29.798889%,21.179199%);fill-opacity:1;" d="M 877.671875 410.382812 L 489.582031 22.328125 C 467.257812 -0.03125 431.007812 -0.03125 408.644531 22.320312 L 328.039062 102.910156 L 430.277344 205.144531 C 454.027344 197.117188 481.285156 202.5 500.207031 221.4375 C 519.234375 240.5 524.582031 267.972656 516.355469 291.808594 L 614.894531 390.347656 C 638.714844 382.121094 666.214844 387.433594 685.277344 406.496094 C 711.875 433.09375 711.875 476.21875 685.277344 502.8125 C 658.644531 529.445312 615.554688 529.445312 588.921875 502.8125 C 568.890625 482.78125 563.957031 453.40625 574.097656 428.75 L 482.222656 336.859375 L 482.1875 578.648438 C 488.679688 581.875 494.792969 586.148438 500.207031 591.53125 C 526.804688 618.125 526.804688 661.25 500.207031 687.882812 C 473.609375 714.480469 430.453125 714.480469 403.890625 687.882812 C 377.292969 661.25 377.292969 618.125 403.890625 591.53125 C 410.453125 584.96875 418.054688 580 426.179688 576.667969 L 426.179688 332.625 C 418.054688 329.3125 410.484375 324.375 403.890625 317.761719 C 383.714844 297.628906 378.890625 268.050781 389.203125 243.296875 L 288.441406 142.507812 L 22.328125 408.613281 C -0.03125 430.972656 -0.03125 467.222656 22.332031 489.585938 L 410.421875 877.675781 C 432.78125 900 469.03125 900 491.394531 877.675781 L 877.679688 491.390625 C 900.039062 469.03125 900.039062 432.746094 877.679688 410.382812 "/>
</g>
</svg>
