<?xml version="1.0" encoding="UTF-8"?>
<svg xmlns="http://www.w3.org/2000/svg" xmlns:xlink="http://www.w3.org/1999/xlink" width="900pt" height="899.99999pt" viewBox="0 0 900 899.99999" version="1.2">
<g id="surface1">
<path style=" stroke:none;fill-rule:nonzero;fill:rgb(0%,0%,0%);fill-opacity:1;" d="M 450 14.066406 C 202.5 14.066406 0 216.738281 0 464.449219 C 0 655.863281 120 819.125 286.875 884.808594 C 303.75 881.054688 318.75 866.042969 318.75 847.273438 L 318.75 764.703125 L 270 764.703125 C 234.375 764.703125 204.375 747.816406 189.375 721.542969 C 185.625 714.035156 181.875 704.652344 178.125 695.269531 C 170.625 674.628906 161.25 652.109375 142.5 638.972656 C 135 633.34375 131.25 622.082031 133.125 612.699219 C 136.875 603.316406 146.25 595.8125 163.125 597.6875 C 181.875 599.566406 210 620.207031 226.875 642.726562 C 241.875 661.492188 253.125 672.75 275.625 672.75 L 281.25 672.75 C 298.125 672.75 339.375 672.75 346.875 665.246094 C 352.5 657.738281 356.25 652.109375 361.875 646.480469 C 249.375 623.960938 185.625 558.28125 185.625 458.820312 C 185.625 425.042969 195 391.261719 215.625 361.238281 C 208.125 333.085938 191.25 259.902344 226.875 228 L 232.5 222.367188 L 240 222.367188 C 288.75 222.367188 324.375 243.011719 346.875 259.902344 C 412.5 235.503906 487.5 235.503906 553.125 259.902344 C 573.75 243.011719 609.375 222.367188 660 222.367188 L 667.5 222.367188 L 673.125 228 C 708.75 261.777344 691.875 333.085938 684.375 361.238281 C 703.125 391.261719 714.375 425.042969 714.375 458.820312 C 714.375 558.28125 650.625 623.960938 540 646.480469 C 568.125 676.503906 583.125 721.542969 583.125 757.199219 L 583.125 849.152344 C 583.125 867.917969 596.25 882.929688 615 886.683594 C 780 819.125 900 655.863281 900 464.449219 C 900 216.738281 697.5 14.066406 450 14.066406 Z M 450 14.066406 "/>
</g>
</svg>
