<?xml version="1.0" encoding="UTF-8"?>
<svg xmlns="http://www.w3.org/2000/svg" xmlns:xlink="http://www.w3.org/1999/xlink" width="900pt" height="899.99999pt" viewBox="0 0 900 899.99999" version="1.2">
<defs>
<clipPath id="clip1">
  <path d="M 131 176 L 769.160156 176 L 769.160156 900 L 131 900 Z M 131 176 "/>
</clipPath>
</defs>
<g id="surface1">
<g clip-path="url(#clip1)" clip-rule="nonzero">
<path style=" stroke:none;fill-rule:nonzero;fill:rgb(89.408875%,30.198669%,14.898682%);fill-opacity:1;" d="M 769.050781 176.867188 L 710.953125 827.585938 L 449.792969 899.964844 L 189.359375 827.683594 L 131.324219 176.867188 L 769.039062 176.855469 L 769.0625 176.855469 Z M 769.050781 176.867188 "/>
</g>
<path style=" stroke:none;fill-rule:nonzero;fill:rgb(94.509888%,39.608765%,16.079712%);fill-opacity:1;" d="M 450.195312 844.640625 L 661.230469 786.15625 L 710.878906 230.085938 L 450.195312 230.078125 Z M 450.195312 844.640625 "/>
<path style=" stroke:none;fill-rule:nonzero;fill:rgb(92.158508%,92.158508%,92.158508%);fill-opacity:1;" d="M 337.25 389.714844 L 450.195312 389.714844 L 450.195312 309.890625 L 250 309.890625 L 251.90625 331.308594 L 271.53125 551.273438 L 450.195312 551.273438 L 450.195312 471.46875 L 344.546875 471.46875 L 337.25 389.71875 Z M 337.25 389.714844 "/>
<path style=" stroke:none;fill-rule:nonzero;fill:rgb(92.158508%,92.158508%,92.158508%);fill-opacity:1;" d="M 355.246094 591.1875 L 275.097656 591.1875 L 286.285156 716.527344 L 449.820312 761.914062 L 450.195312 761.8125 L 450.195312 678.761719 L 449.84375 678.863281 L 360.929688 654.84375 Z M 355.246094 591.1875 "/>
<path style=" stroke:none;fill-rule:nonzero;fill:rgb(0%,0%,0%);fill-opacity:1;" d="M 190.660156 0 L 231.234375 0 L 231.234375 40.078125 L 268.347656 40.078125 L 268.347656 0 L 308.921875 0 L 308.921875 121.359375 L 268.351562 121.359375 L 268.351562 80.722656 L 231.234375 80.722656 L 231.234375 121.359375 L 190.660156 121.359375 Z M 190.660156 0 "/>
<path style=" stroke:none;fill-rule:nonzero;fill:rgb(0%,0%,0%);fill-opacity:1;" d="M 362.277344 40.246094 L 326.558594 40.246094 L 326.558594 0 L 438.59375 0 L 438.59375 40.246094 L 402.847656 40.246094 L 402.847656 121.359375 L 362.277344 121.359375 Z M 362.277344 40.246094 "/>
<path style=" stroke:none;fill-rule:nonzero;fill:rgb(0%,0%,0%);fill-opacity:1;" d="M 456.367188 0 L 498.667969 0 L 524.691406 42.644531 L 550.6875 0 L 593.011719 0 L 593.011719 121.359375 L 552.613281 121.359375 L 552.613281 61.207031 L 524.691406 104.359375 L 523.988281 104.359375 L 496.066406 61.207031 L 496.066406 121.359375 L 456.367188 121.359375 Z M 456.367188 0 "/>
<path style=" stroke:none;fill-rule:nonzero;fill:rgb(0%,0%,0%);fill-opacity:1;" d="M 613.210938 0 L 653.78125 0 L 653.78125 81.246094 L 710.855469 81.246094 L 710.855469 121.359375 L 613.210938 121.359375 Z M 613.210938 0 "/>
<path style=" stroke:none;fill-rule:nonzero;fill:rgb(100%,100%,100%);fill-opacity:1;" d="M 449.917969 551.273438 L 548.238281 551.273438 L 538.964844 654.792969 L 449.917969 678.835938 L 449.917969 761.863281 L 613.585938 716.527344 L 614.785156 703.03125 L 633.558594 492.886719 L 635.507812 471.46875 L 449.917969 471.46875 Z M 449.917969 551.273438 "/>
<path style=" stroke:none;fill-rule:nonzero;fill:rgb(100%,100%,100%);fill-opacity:1;" d="M 449.917969 389.515625 L 449.917969 389.714844 L 642.757812 389.714844 L 644.359375 371.773438 L 648.007812 331.308594 L 649.90625 309.890625 L 449.917969 309.890625 Z M 449.917969 389.515625 "/>
</g>
</svg>
