<?xml version="1.0" encoding="UTF-8"?>
<svg xmlns="http://www.w3.org/2000/svg" xmlns:xlink="http://www.w3.org/1999/xlink" width="900pt" height="899.99999pt" viewBox="0 0 900 899.99999" version="1.2">
<g id="surface1">
<path style=" stroke:none;fill-rule:nonzero;fill:rgb(32.548523%,75.689697%,87.059021%);fill-opacity:1;" d="M 530.511719 448.460938 C 530.511719 449.78125 530.480469 451.097656 530.414062 452.414062 C 530.351562 453.730469 530.253906 455.046875 530.125 456.359375 C 529.996094 457.671875 529.835938 458.980469 529.640625 460.285156 C 529.449219 461.589844 529.222656 462.890625 528.964844 464.183594 C 528.707031 465.476562 528.417969 466.761719 528.097656 468.042969 C 527.78125 469.320312 527.429688 470.589844 527.046875 471.855469 C 526.664062 473.117188 526.25 474.367188 525.804688 475.609375 C 525.363281 476.851562 524.886719 478.082031 524.382812 479.300781 C 523.878906 480.519531 523.347656 481.722656 522.78125 482.914062 C 522.21875 484.109375 521.625 485.285156 521.003906 486.449219 C 520.382812 487.613281 519.734375 488.757812 519.058594 489.890625 C 518.378906 491.019531 517.675781 492.136719 516.945312 493.230469 C 516.210938 494.328125 515.453125 495.40625 514.667969 496.464844 C 513.882812 497.523438 513.074219 498.5625 512.238281 499.582031 C 511.402344 500.601562 510.539062 501.601562 509.65625 502.578125 C 508.769531 503.554688 507.863281 504.511719 506.929688 505.445312 C 506 506.375 505.046875 507.285156 504.070312 508.171875 C 503.09375 509.054688 502.09375 509.917969 501.078125 510.753906 C 500.058594 511.589844 499.019531 512.402344 497.960938 513.1875 C 496.902344 513.972656 495.824219 514.734375 494.730469 515.464844 C 493.632812 516.199219 492.523438 516.902344 491.390625 517.582031 C 490.261719 518.257812 489.117188 518.910156 487.953125 519.53125 C 486.792969 520.152344 485.613281 520.746094 484.421875 521.308594 C 483.230469 521.875 482.027344 522.40625 480.8125 522.914062 C 479.59375 523.417969 478.363281 523.890625 477.125 524.335938 C 475.882812 524.78125 474.632812 525.195312 473.371094 525.578125 C 472.109375 525.960938 470.839844 526.3125 469.5625 526.632812 C 468.285156 526.953125 467 527.242188 465.707031 527.5 C 464.414062 527.753906 463.117188 527.980469 461.8125 528.175781 C 460.511719 528.367188 459.203125 528.527344 457.890625 528.660156 C 456.582031 528.789062 455.265625 528.886719 453.949219 528.949219 C 452.632812 529.015625 451.316406 529.046875 450 529.046875 C 448.683594 529.046875 447.367188 529.015625 446.050781 528.949219 C 444.734375 528.886719 443.417969 528.789062 442.109375 528.660156 C 440.796875 528.527344 439.488281 528.367188 438.1875 528.175781 C 436.882812 527.980469 435.585938 527.753906 434.292969 527.5 C 433 527.242188 431.714844 526.953125 430.4375 526.632812 C 429.160156 526.3125 427.890625 525.960938 426.628906 525.578125 C 425.367188 525.195312 424.117188 524.78125 422.875 524.335938 C 421.636719 523.890625 420.40625 523.417969 419.1875 522.914062 C 417.972656 522.40625 416.765625 521.875 415.578125 521.308594 C 414.386719 520.746094 413.207031 520.152344 412.046875 519.53125 C 410.882812 518.910156 409.738281 518.257812 408.609375 517.582031 C 407.476562 516.902344 406.363281 516.199219 405.269531 515.464844 C 404.175781 514.734375 403.097656 513.972656 402.039062 513.1875 C 400.980469 512.402344 399.941406 511.589844 398.921875 510.753906 C 397.90625 509.917969 396.90625 509.054688 395.929688 508.171875 C 394.953125 507.285156 394 506.375 393.070312 505.445312 C 392.136719 504.511719 391.230469 503.554688 390.34375 502.578125 C 389.460938 501.601562 388.597656 500.601562 387.761719 499.582031 C 386.925781 498.5625 386.117188 497.523438 385.332031 496.464844 C 384.546875 495.40625 383.789062 494.328125 383.054688 493.230469 C 382.324219 492.136719 381.621094 491.019531 380.941406 489.890625 C 380.265625 488.757812 379.617188 487.613281 378.996094 486.449219 C 378.375 485.285156 377.78125 484.109375 377.21875 482.914062 C 376.652344 481.722656 376.121094 480.519531 375.617188 479.300781 C 375.113281 478.082031 374.636719 476.851562 374.195312 475.609375 C 373.75 474.367188 373.335938 473.117188 372.953125 471.855469 C 372.570312 470.589844 372.21875 469.320312 371.898438 468.042969 C 371.582031 466.761719 371.292969 465.476562 371.035156 464.183594 C 370.777344 462.890625 370.550781 461.589844 370.359375 460.285156 C 370.164062 458.980469 370.003906 457.671875 369.875 456.359375 C 369.746094 455.046875 369.648438 453.730469 369.585938 452.414062 C 369.519531 451.097656 369.488281 449.78125 369.488281 448.460938 C 369.488281 447.140625 369.519531 445.824219 369.585938 444.507812 C 369.648438 443.191406 369.746094 441.875 369.875 440.5625 C 370.003906 439.25 370.164062 437.941406 370.359375 436.636719 C 370.550781 435.332031 370.777344 434.03125 371.035156 432.738281 C 371.292969 431.445312 371.582031 430.160156 371.898438 428.878906 C 372.21875 427.601562 372.570312 426.332031 372.953125 425.066406 C 373.335938 423.804688 373.75 422.554688 374.195312 421.3125 C 374.636719 420.070312 375.113281 418.839844 375.617188 417.621094 C 376.121094 416.402344 376.652344 415.199219 377.21875 414.007812 C 377.78125 412.8125 378.375 411.636719 378.996094 410.472656 C 379.617188 409.308594 380.265625 408.164062 380.941406 407.03125 C 381.621094 405.898438 382.324219 404.785156 383.054688 403.691406 C 383.789062 402.59375 384.546875 401.515625 385.332031 400.457031 C 386.117188 399.398438 386.925781 398.355469 387.761719 397.335938 C 388.597656 396.316406 389.460938 395.320312 390.34375 394.34375 C 391.230469 393.367188 392.136719 392.410156 393.070312 391.476562 C 394 390.546875 394.953125 389.636719 395.929688 388.75 C 396.90625 387.863281 397.90625 387.003906 398.921875 386.167969 C 399.941406 385.332031 400.980469 384.519531 402.039062 383.734375 C 403.097656 382.949219 404.175781 382.1875 405.269531 381.457031 C 406.363281 380.722656 407.476562 380.019531 408.609375 379.339844 C 409.738281 378.660156 410.882812 378.011719 412.046875 377.390625 C 413.207031 376.769531 414.386719 376.175781 415.578125 375.613281 C 416.765625 375.046875 417.972656 374.515625 419.1875 374.007812 C 420.40625 373.503906 421.636719 373.03125 422.875 372.585938 C 424.117188 372.140625 425.367188 371.726562 426.628906 371.34375 C 427.890625 370.960938 429.160156 370.609375 430.4375 370.289062 C 431.714844 369.96875 433 369.679688 434.292969 369.421875 C 435.585938 369.167969 436.882812 368.941406 438.1875 368.746094 C 439.488281 368.554688 440.796875 368.390625 442.109375 368.261719 C 443.417969 368.132812 444.734375 368.035156 446.050781 367.972656 C 447.367188 367.90625 448.683594 367.875 450 367.875 C 451.316406 367.875 452.632812 367.90625 453.949219 367.972656 C 455.265625 368.035156 456.582031 368.132812 457.890625 368.261719 C 459.203125 368.390625 460.511719 368.554688 461.8125 368.746094 C 463.117188 368.941406 464.414062 369.167969 465.707031 369.421875 C 467 369.679688 468.285156 369.96875 469.5625 370.289062 C 470.839844 370.609375 472.109375 370.960938 473.371094 371.34375 C 474.632812 371.726562 475.882812 372.140625 477.125 372.585938 C 478.363281 373.03125 479.59375 373.503906 480.8125 374.007812 C 482.027344 374.515625 483.230469 375.046875 484.421875 375.613281 C 485.613281 376.175781 486.792969 376.769531 487.953125 377.390625 C 489.117188 378.011719 490.261719 378.660156 491.390625 379.339844 C 492.523438 380.019531 493.632812 380.722656 494.730469 381.457031 C 495.824219 382.1875 496.902344 382.949219 497.960938 383.734375 C 499.019531 384.519531 500.058594 385.332031 501.078125 386.167969 C 502.09375 387.003906 503.09375 387.863281 504.070312 388.75 C 505.046875 389.636719 506 390.546875 506.929688 391.476562 C 507.863281 392.410156 508.769531 393.367188 509.65625 394.34375 C 510.539062 395.320312 511.402344 396.316406 512.238281 397.335938 C 513.074219 398.355469 513.882812 399.398438 514.667969 400.457031 C 515.453125 401.515625 516.210938 402.59375 516.945312 403.691406 C 517.675781 404.785156 518.378906 405.898438 519.058594 407.03125 C 519.734375 408.164062 520.382812 409.308594 521.003906 410.472656 C 521.625 411.636719 522.21875 412.8125 522.78125 414.007812 C 523.347656 415.199219 523.878906 416.402344 524.382812 417.621094 C 524.886719 418.839844 525.363281 420.070312 525.804688 421.3125 C 526.25 422.554688 526.664062 423.804688 527.046875 425.066406 C 527.429688 426.332031 527.78125 427.601562 528.097656 428.878906 C 528.417969 430.160156 528.707031 431.445312 528.964844 432.738281 C 529.222656 434.03125 529.449219 435.332031 529.640625 436.636719 C 529.835938 437.941406 529.996094 439.25 530.125 440.5625 C 530.253906 441.875 530.351562 443.191406 530.414062 444.507812 C 530.480469 445.824219 530.511719 447.140625 530.511719 448.460938 Z M 530.511719 448.460938 "/>
<path style=" stroke:none;fill-rule:nonzero;fill:rgb(32.548523%,75.689697%,87.059021%);fill-opacity:1;" d="M 169.273438 591.164062 C 177.1875 593.792969 185.101562 596.457031 193.199219 598.746094 C 190.574219 609.292969 188.289062 619.691406 186.148438 630.425781 C 167.699219 728.089844 182.101562 805.484375 228.148438 832.058594 C 275.625 859.496094 355.425781 831.347656 433.125 763.257812 C 439.273438 757.816406 445.425781 752.1875 451.574219 746.179688 C 459.300781 753.761719 467.398438 760.96875 475.460938 767.988281 C 550.6875 832.734375 625.050781 858.933594 670.949219 832.398438 C 718.425781 804.960938 733.875 721.746094 713.851562 620.40625 C 712.273438 612.671875 710.511719 604.753906 708.5625 596.644531 C 714.1875 595.070312 719.625 593.304688 725.101562 591.539062 C 826.539062 557.949219 900 503.5625 900 447.785156 C 900 394.488281 830.738281 342.765625 735.113281 309.847656 L 735.113281 309.808594 C 725.625 306.65625 716.136719 303.652344 706.648438 300.839844 C 708.226562 294.347656 709.648438 287.816406 711.039062 281.320312 C 732.675781 176.449219 718.425781 92.222656 670.425781 64.410156 C 624.1875 37.835938 548.773438 65.460938 472.5 131.972656 C 464.925781 138.464844 457.574219 145.335938 450.523438 152.203125 C 445.761719 147.625 440.851562 143.046875 435.9375 138.652344 C 355.949219 67.566406 275.8125 37.648438 227.8125 65.652344 C 181.761719 92.414062 168.039062 171.757812 187.386719 270.925781 C 189.335938 280.796875 191.4375 290.441406 193.875 300.3125 C 182.625 303.464844 171.5625 306.996094 161.175781 310.710938 C 67.3125 343.253906 0 394.636719 0 447.785156 C 0 502.699219 71.699219 557.722656 169.273438 591.164062 Z M 408.335938 734.507812 C 379.351562 761.082031 345.75 782.175781 309.1875 796.628906 C 289.6875 805.9375 267.1875 806.835938 247.125 798.917969 C 219.1875 782.738281 207.5625 720.621094 223.386719 637.03125 C 225.335938 627.199219 227.4375 617.328125 229.875 607.644531 C 269.25 616.089844 308.960938 621.90625 349.238281 624.871094 C 372.449219 657.789062 397.914062 689.28125 425.175781 718.820312 C 419.550781 724.261719 413.925781 729.554688 408.300781 734.472656 Z M 631.574219 404.132812 C 623.324219 388.632812 614.886719 373.167969 606.074219 358.042969 C 597.449219 343.101562 588.488281 328.3125 579.1875 313.714844 C 607.5 317.242188 634.574219 321.972656 659.886719 327.789062 C 651.789062 353.835938 642.300781 379.171875 631.574219 404.132812 Z M 631.914062 491.738281 C 643.164062 517.261719 653.023438 543.121094 661.613281 569.695312 C 634.351562 575.851562 606.789062 580.617188 579 583.769531 C 588.488281 568.984375 597.449219 553.855469 606.261719 538.730469 C 615.226562 523.230469 623.664062 507.578125 631.914062 491.738281 Z M 611.585938 447.972656 C 599.8125 472.257812 587.136719 496.167969 573.636719 519.738281 C 560.289062 543.121094 546.039062 565.828125 531.113281 588.351562 C 504.9375 590.300781 477.675781 591.164062 450.074219 591.164062 C 422.476562 591.164062 395.773438 590.300781 369.9375 588.6875 C 354.636719 566.355469 340.238281 543.460938 326.699219 520.074219 C 313.164062 496.691406 300.675781 472.933594 288.898438 448.648438 L 288.824219 448.648438 C 300.414062 424.363281 313.085938 400.605469 326.4375 377.222656 C 339.789062 353.835938 354.226562 331.128906 369.335938 308.796875 C 395.699219 306.84375 422.585938 305.792969 450.039062 305.792969 C 477.488281 305.792969 504.523438 306.84375 530.738281 308.796875 C 545.664062 330.980469 559.914062 353.648438 573.449219 376.882812 C 586.988281 400.117188 599.625 423.875 611.585938 447.972656 Z M 293.699219 358.378906 C 285.074219 373.316406 276.636719 388.59375 268.726562 404.09375 C 257.664062 377.898438 248.324219 352.222656 240.601562 327.414062 C 265.914062 321.785156 292.800781 317.203125 320.738281 313.675781 C 311.476562 328.277344 302.324219 343.214844 293.699219 358.378906 Z M 268.761719 493.125 C 276.863281 508.628906 285.113281 523.941406 293.886719 539.066406 C 302.851562 554.382812 312 569.695312 321.675781 584.632812 C 294.261719 581.632812 267 577.242188 240.113281 571.421875 C 247.835938 546.085938 257.511719 519.886719 268.761719 493.125 Z M 451.425781 691.71875 C 433.5 672.390625 415.574219 650.957031 398.175781 627.875 C 415.050781 628.585938 432.449219 628.925781 450.039062 628.925781 C 468.148438 628.925781 485.886719 628.585938 503.476562 627.6875 C 487.3125 650.019531 469.914062 671.339844 451.425781 691.71875 Z M 681.1875 744.566406 C 679.574219 766 669.039062 786.042969 652.164062 799.59375 C 624.226562 815.769531 564.636719 794.675781 500.289062 739.425781 C 492.898438 733.082031 485.511719 726.214844 477.976562 719.195312 C 504.863281 689.46875 529.648438 657.976562 552.148438 624.910156 C 592.386719 621.566406 632.476562 615.414062 672.039062 606.441406 C 673.800781 613.648438 675.375 620.855469 676.800781 627.910156 C 685.425781 665.933594 686.8125 705.496094 681.1875 744.566406 Z M 696.449219 337.097656 C 705.601562 339.722656 714.375 342.539062 722.8125 345.355469 C 804.710938 373.503906 862.199219 415.394531 862.199219 447.410156 C 862.199219 481.902344 800.851562 526.417969 713.136719 555.433594 C 708.226562 557.007812 703.3125 558.585938 698.210938 560.011719 C 685.914062 521.652344 670.800781 484.191406 653.398438 447.746094 C 670.273438 411.863281 684.523438 374.894531 696.449219 337.097656 Z M 497.25 160.460938 C 562.6875 103.484375 623.664062 81.152344 651.449219 97.140625 C 681.148438 114.21875 692.585938 183.167969 673.949219 273.777344 C 672.710938 279.746094 671.476562 285.5625 669.898438 291.378906 C 630.863281 282.597656 591.335938 276.253906 551.585938 272.726562 C 528.75 239.957031 503.773438 208.65625 476.699219 179.265625 C 483.5625 172.773438 490.238281 166.617188 497.25 160.460938 Z M 450.375 206.214844 C 468.824219 226.257812 486.226562 247.351562 502.386719 269.160156 C 467.585938 267.582031 432.601562 267.582031 397.800781 269.160156 C 415.011719 246.488281 432.789062 225.394531 450.375 206.214844 Z M 246.449219 98.378906 C 276 81.152344 341.550781 105.773438 410.625 166.992188 C 415.011719 170.859375 419.398438 175.101562 423.976562 179.304688 C 396.710938 208.65625 371.585938 239.957031 348.5625 272.6875 C 308.851562 276.21875 269.476562 282.371094 230.4375 291.003906 C 228.148438 282.035156 226.238281 272.875 224.289062 263.71875 C 207.75 178.554688 218.664062 114.371094 246.449219 98.378906 Z M 173.511719 346.40625 C 183.523438 342.878906 193.726562 339.722656 203.925781 336.722656 C 215.886719 374.894531 230.289062 412.390625 246.976562 448.609375 C 230.101562 485.394531 215.511719 523.378906 203.398438 562.078125 L 203.363281 562.113281 C 195.976562 560.011719 188.773438 557.722656 181.574219 555.246094 C 144.148438 543.460938 101.585938 524.804688 70.835938 500.371094 C 53.101562 488.058594 41.136719 469.066406 37.800781 447.746094 C 37.800781 415.542969 93.335938 374.367188 173.511719 346.40625 Z M 173.511719 346.40625 "/>
</g>
</svg>
