<?xml version="1.0" encoding="UTF-8"?>
<svg xmlns="http://www.w3.org/2000/svg" xmlns:xlink="http://www.w3.org/1999/xlink" width="900pt" height="899.99999pt" viewBox="0 0 900 899.99999" version="1.2">
<g id="surface1">
<path style=" stroke:none;fill-rule:nonzero;fill:rgb(0%,0%,0%);fill-opacity:1;" d="M 566.476562 208.929688 C 549.671875 201.851562 507.511719 192.855469 444 192.855469 C 380.488281 192.855469 338.324219 201.851562 321.53125 208.929688 C 338.324219 216.007812 380.488281 225 444 225 C 507.511719 225 549.671875 216.007812 566.476562 208.929688 "/>
<path style=" stroke:none;fill-rule:nonzero;fill:rgb(0%,0%,0%);fill-opacity:1;" d="M 299.28125 803.570312 C 272.679688 803.570312 251.039062 781.945312 251.039062 755.355469 C 251.039062 728.769531 272.679688 707.144531 299.28125 707.144531 L 331.441406 707.144531 C 340.320312 707.144531 347.519531 714.339844 347.519531 723.214844 C 347.519531 732.089844 340.320312 739.285156 331.441406 739.285156 L 299.28125 739.285156 C 290.417969 739.285156 283.199219 746.496094 283.199219 755.355469 C 283.199219 764.21875 290.417969 771.429688 299.28125 771.429688 C 325.882812 771.429688 347.519531 793.054688 347.519531 819.644531 C 347.519531 846.230469 325.882812 867.855469 299.28125 867.855469 L 267.121094 867.855469 C 258.242188 867.855469 251.039062 860.660156 251.039062 851.785156 C 251.039062 842.910156 258.242188 835.714844 267.121094 835.714844 L 299.28125 835.714844 C 308.144531 835.714844 315.359375 828.503906 315.359375 819.644531 C 315.359375 810.78125 308.144531 803.570312 299.28125 803.570312 Z M 444 707.144531 C 479.464844 707.144531 508.320312 743.195312 508.320312 787.5 C 508.320312 804.597656 504.007812 820.457031 496.691406 833.5 L 503.609375 840.421875 C 509.890625 846.699219 509.890625 856.871094 503.609375 863.148438 C 500.46875 866.289062 496.355469 867.855469 492.238281 867.855469 C 488.125 867.855469 484.011719 866.289062 480.871094 863.148438 L 475.351562 857.632812 C 466.0625 864.128906 455.375 867.855469 444 867.855469 C 408.535156 867.855469 379.679688 831.804688 379.679688 787.5 C 379.679688 743.195312 408.535156 707.144531 444 707.144531 Z M 540.480469 723.214844 C 540.480469 714.339844 547.679688 707.144531 556.558594 707.144531 C 565.441406 707.144531 572.640625 714.339844 572.640625 723.214844 L 572.640625 835.714844 L 620.878906 835.714844 C 629.757812 835.714844 636.960938 842.910156 636.960938 851.785156 C 636.960938 860.660156 629.757812 867.855469 620.878906 867.855469 L 556.558594 867.855469 C 547.679688 867.855469 540.480469 860.660156 540.480469 851.785156 Z M 90.242188 819.644531 C 90.242188 863.949219 126.3125 900 170.640625 900 L 717.359375 900 C 761.6875 900 797.757812 863.949219 797.757812 819.644531 L 797.757812 675 L 90.242188 675 L 90.242188 819.644531 "/>
<path style=" stroke:none;fill-rule:nonzero;fill:rgb(0%,0%,0%);fill-opacity:1;" d="M 444 835.714844 C 446.707031 835.714844 449.355469 835.179688 451.882812 834.183594 L 432.632812 814.933594 C 426.351562 808.65625 426.351562 798.484375 432.632812 792.207031 C 438.914062 785.929688 449.085938 785.929688 455.367188 792.207031 L 472.523438 809.355469 C 474.839844 802.746094 476.160156 795.308594 476.160156 787.5 C 476.160156 761.367188 461.429688 739.285156 444 739.285156 C 426.570312 739.285156 411.839844 761.367188 411.839844 787.5 C 411.839844 813.632812 426.570312 835.714844 444 835.714844 "/>
<path style=" stroke:none;fill-rule:nonzero;fill:rgb(0%,0%,0%);fill-opacity:1;" d="M 717.359375 160.714844 L 775.019531 160.714844 L 636.960938 22.726562 L 636.960938 80.355469 C 636.960938 124.664062 673.027344 160.714844 717.359375 160.714844 "/>
<path style=" stroke:none;fill-rule:nonzero;fill:rgb(0%,0%,0%);fill-opacity:1;" d="M 444 257.144531 C 404.207031 257.144531 366.625 253.667969 338.175781 247.339844 C 330.929688 245.734375 322.945312 243.699219 315.359375 240.976562 L 315.359375 302.085938 C 325.105469 309.25 370.085938 321.429688 444 321.429688 C 517.914062 321.429688 562.894531 309.25 572.640625 302.085938 L 572.640625 240.976562 C 565.054688 243.699219 557.070312 245.734375 549.824219 247.339844 C 521.375 253.667969 483.792969 257.144531 444 257.144531 "/>
<path style=" stroke:none;fill-rule:nonzero;fill:rgb(0%,0%,0%);fill-opacity:1;" d="M 444 450 C 404.207031 450 366.625 446.523438 338.175781 440.199219 C 330.929688 438.589844 322.945312 436.558594 315.359375 433.835938 L 315.359375 494.957031 C 325.152344 502.121094 370.148438 514.285156 444 514.285156 C 517.851562 514.285156 562.847656 502.121094 572.640625 494.957031 L 572.640625 433.835938 C 565.054688 436.558594 557.070312 438.589844 549.824219 440.199219 C 521.375 446.523438 483.792969 450 444 450 "/>
<path style=" stroke:none;fill-rule:nonzero;fill:rgb(0%,0%,0%);fill-opacity:1;" d="M 444 353.570312 C 404.207031 353.570312 366.625 350.09375 338.175781 343.769531 C 330.929688 342.160156 322.945312 340.128906 315.359375 337.40625 L 315.359375 398.511719 C 325.105469 405.679688 370.085938 417.855469 444 417.855469 C 517.914062 417.855469 562.894531 405.679688 572.640625 398.511719 L 572.640625 337.40625 C 565.054688 340.128906 557.070312 342.160156 549.824219 343.769531 C 521.375 350.09375 483.792969 353.570312 444 353.570312 "/>
<path style=" stroke:none;fill-rule:nonzero;fill:rgb(0%,0%,0%);fill-opacity:1;" d="M 604.800781 498.214844 C 604.800781 521.703125 573.425781 531.394531 549.824219 536.628906 C 521.375 542.953125 483.792969 546.429688 444 546.429688 C 404.207031 546.429688 366.625 542.953125 338.175781 536.628906 C 314.574219 531.394531 283.199219 521.703125 283.199219 498.214844 L 283.199219 208.929688 C 283.199219 185.441406 314.574219 175.75 338.175781 170.515625 C 366.625 164.191406 404.207031 160.714844 444 160.714844 C 483.792969 160.714844 521.375 164.191406 549.824219 170.515625 C 573.425781 175.75 604.800781 185.441406 604.800781 208.929688 Z M 604.800781 80.355469 L 604.800781 0 L 170.640625 0 C 126.3125 0 90.242188 36.050781 90.242188 80.355469 L 90.242188 642.855469 L 797.757812 642.855469 L 797.757812 192.855469 L 717.359375 192.855469 C 655.292969 192.855469 604.800781 142.390625 604.800781 80.355469 "/>
</g>
</svg>
