<?xml version="1.0" encoding="UTF-8"?>
<svg xmlns="http://www.w3.org/2000/svg" xmlns:xlink="http://www.w3.org/1999/xlink" width="900pt" height="899.99999pt" viewBox="0 0 900 899.99999" version="1.2">
<g id="surface1">
<path style=" stroke:none;fill-rule:nonzero;fill:rgb(81.17981%,84.709167%,86.268616%);fill-opacity:1;" d="M 423.765625 186.234375 C 387.023438 131.128906 379.078125 57.488281 377.347656 27.226562 C 284.015625 47.40625 191.296875 83.609375 196.648438 110.273438 C 197.324219 113.625 201.554688 117.652344 208.574219 121.566406 L 197.59375 141.210938 C 184.183594 133.695312 176.648438 125.03125 174.601562 114.683594 C 168.546875 84.511719 202.726562 57.21875 279.046875 31.230469 C 331.15625 13.476562 383.714844 2.878906 385.941406 2.453125 L 399.375 -0.246094 L 399.375 13.5 C 399.375 14.445312 399.960938 109.980469 442.484375 173.765625 Z M 423.765625 186.234375 "/>
<path style=" stroke:none;fill-rule:nonzero;fill:rgb(81.17981%,84.709167%,86.268616%);fill-opacity:1;" d="M 461.273438 900 L 455.625 900 C 271.304688 900 66.171875 842.109375 41.941406 745.222656 C 27.15625 686.046875 75.511719 620.664062 181.753906 556.199219 L 193.453125 575.414062 C 97.851562 633.441406 51.796875 691.785156 63.789062 739.777344 C 84.824219 823.882812 279.226562 876.308594 449.730469 877.476562 C 470.003906 847.167969 578.925781 669.128906 516.757812 430.335938 L 538.515625 424.664062 C 609.367188 696.734375 466.109375 893.496094 464.671875 895.453125 Z M 461.273438 900 "/>
<path style=" stroke:none;fill-rule:nonzero;fill:rgb(81.17981%,84.709167%,86.268616%);fill-opacity:1;" d="M 127.824219 816.886719 C 115.695312 816.886719 109.6875 815.558594 108.699219 815.308594 C 104.738281 814.34375 101.632812 811.304688 100.550781 807.390625 C 99.449219 803.476562 100.574219 799.265625 103.453125 796.410156 C 105.074219 794.789062 265.386719 634.230469 287.03125 504.40625 L 309.21875 508.09375 C 290.609375 619.785156 180.628906 747.113281 136.957031 794.003906 C 180.585938 791.503906 290.746094 771.074219 502.222656 652.703125 C 337.183594 634.613281 311.085938 502.492188 310.816406 501.074219 L 332.933594 497.003906 C 333.988281 502.539062 360.515625 632.25 540.921875 632.25 C 540.988281 632.25 541.035156 632.25 541.101562 632.25 C 546.210938 632.25 550.640625 635.671875 551.949219 640.574219 C 553.296875 645.480469 551.136719 650.675781 546.75 653.242188 C 293.960938 799.695312 171.382812 816.863281 127.824219 816.886719 Z M 127.824219 816.886719 "/>
<path style=" stroke:none;fill-rule:nonzero;fill:rgb(81.17981%,84.709167%,86.268616%);fill-opacity:1;" d="M 231.164062 870.75 C 226.507812 870.75 222.277344 867.871094 220.636719 863.4375 C 218.859375 858.691406 220.476562 853.3125 224.617188 850.34375 C 225.382812 849.78125 265.410156 820.238281 308.003906 755.210938 C 291.621094 747.96875 275.039062 739.507812 258.59375 729.628906 C 238.613281 717.636719 223.515625 704.765625 212.242188 691.582031 C 154.417969 706.835938 101.046875 712.867188 54.179688 708.886719 L 56.070312 686.476562 C 98.28125 690.050781 146.273438 685.058594 198.292969 672.074219 C 162.898438 611.59375 195.390625 551.566406 195.839844 550.753906 L 215.503906 561.710938 C 213.996094 564.457031 187.042969 615.039062 221.109375 665.953125 C 270.628906 651.734375 323.460938 630.699219 378.136719 603.359375 C 390.710938 562.074219 400.546875 515.113281 405.699219 462.148438 C 406.058594 458.527344 408.128906 455.308594 411.277344 453.488281 C 414.425781 451.664062 418.273438 451.507812 421.582031 453.015625 C 422.300781 453.351562 495.023438 486.5625 547.671875 508.230469 C 551.496094 509.804688 554.152344 513.359375 554.578125 517.476562 C 555.03125 521.59375 553.164062 525.601562 549.71875 527.941406 C 498.21875 563.039062 447.050781 593.484375 397.214844 618.886719 C 381.421875 668.949219 361.867188 710.617188 341.886719 744.683594 C 425.183594 775.800781 497.476562 776.273438 498.398438 776.273438 C 503.527344 776.273438 508.003906 779.738281 509.289062 784.710938 C 510.570312 789.683594 508.34375 794.878906 503.863281 797.378906 C 401.714844 854.121094 239.109375 870.097656 232.246094 870.75 C 231.886719 870.726562 231.523438 870.75 231.164062 870.75 Z M 329.828125 764.257812 C 306.425781 800.574219 283.433594 826.648438 266.242188 843.683594 C 311.199219 837.066406 390.015625 822.578125 455.421875 795.554688 C 424.101562 791.707031 378.765625 783.15625 329.828125 764.257812 Z M 236.632812 684.699219 C 245.476562 693.515625 256.5 702.136719 270.15625 710.347656 C 286.71875 720.292969 303.523438 728.730469 320.109375 735.886719 C 337.074219 707.445312 353.878906 673.3125 368.300781 633.105469 C 322.828125 654.75 278.683594 672.03125 236.632812 684.699219 Z M 426.421875 479.902344 C 421.808594 519.683594 414.699219 555.976562 405.878906 589.027344 C 443.226562 569.113281 481.34375 546.367188 519.773438 520.941406 C 484.921875 506.183594 446.601562 489.015625 426.421875 479.902344 Z M 426.421875 479.902344 "/>
<path style=" stroke:none;fill-rule:nonzero;fill:rgb(81.17981%,84.709167%,86.268616%);fill-opacity:1;" d="M 307.664062 171 C 305.03125 171 302.421875 170.054688 300.351562 168.300781 C 264.128906 137.296875 221.488281 74.203125 219.691406 71.527344 C 216.789062 67.230469 217.238281 61.492188 220.726562 57.667969 C 224.191406 53.820312 229.90625 52.921875 234.40625 55.371094 C 234.652344 55.441406 255.511719 64.035156 396.789062 87.570312 C 400.859375 88.246094 404.210938 91.078125 405.5625 94.949219 C 406.933594 98.820312 406.058594 103.140625 403.3125 106.199219 C 363.757812 150.140625 313.785156 169.492188 311.667969 170.28125 C 310.363281 170.753906 308.992188 171 307.664062 171 Z M 256.433594 84.285156 C 270.628906 103.386719 291.082031 129.195312 309.800781 146.585938 C 321.300781 141.34375 347.085938 128.183594 371.542969 106.132812 C 313.425781 96.210938 277.964844 89.144531 256.433594 84.285156 Z M 256.433594 84.285156 "/>
<path style=" stroke:none;fill-rule:nonzero;fill:rgb(71.759033%,10.978699%,10.978699%);fill-opacity:1;" d="M 395.84375 481.5 C 394.3125 481.5 392.761719 481.183594 391.320312 480.554688 C 386.84375 478.574219 384.140625 473.941406 384.660156 469.078125 C 391.230469 407.226562 296.324219 382.410156 295.359375 382.183594 C 291.441406 381.195312 288.335938 378.15625 287.28125 374.265625 C 286.222656 370.371094 287.324219 366.1875 290.183594 363.328125 C 294.839844 358.671875 405.808594 248.625 545.039062 188.191406 C 548.933594 186.503906 553.34375 187.132812 556.628906 189.765625 C 559.890625 192.421875 561.398438 196.671875 560.542969 200.765625 C 533.859375 330.007812 409.566406 471.757812 404.300781 477.71875 C 402.074219 480.171875 398.96875 481.5 395.84375 481.5 Z M 319.613281 366.414062 C 346.253906 376.425781 392.917969 399.601562 404.730469 441.921875 C 437.332031 401.242188 506.925781 307.53125 532.914062 218.40625 C 434.203125 265.882812 351.089844 337.476562 319.613281 366.414062 Z M 319.613281 366.414062 "/>
<path style=" stroke:none;fill-rule:nonzero;fill:rgb(71.759033%,10.978699%,10.978699%);fill-opacity:1;" d="M 198.652344 570.601562 L 187.964844 550.800781 C 230.332031 527.960938 278.863281 485.933594 318.621094 437.085938 C 284.78125 460.261719 265.410156 476.121094 264.800781 476.640625 L 250.425781 459.316406 C 251.300781 458.59375 290.113281 426.757812 354.621094 386.863281 C 372.328125 358.378906 385.941406 329.085938 392.941406 301.003906 C 394.132812 296.234375 395.167969 291.621094 396 287.167969 C 352.6875 271.710938 312.726562 262.550781 285.277344 258.613281 C 281.113281 258.03125 277.648438 255.171875 276.253906 251.234375 C 274.859375 247.296875 275.78125 242.886719 278.59375 239.828125 C 280.507812 237.757812 326.203125 188.796875 383.308594 161.910156 C 387.742188 159.816406 393.050781 160.851562 396.382812 164.476562 C 397.890625 166.117188 428.78125 200.8125 420.929688 272.585938 C 446.917969 282.710938 473.691406 295.019531 499.476562 309.667969 C 561.554688 281.765625 632.046875 256.65625 707.128906 241.492188 C 711 240.726562 715.296875 242.121094 717.953125 245.273438 C 720.585938 248.421875 721.304688 252.765625 719.820312 256.589844 C 690.570312 331.558594 612.136719 411.636719 608.804688 415.011719 C 606.53125 417.308594 603.425781 418.453125 600.1875 418.34375 C 596.96875 418.164062 594 416.632812 591.976562 414.113281 C 566.773438 382.433594 533.835938 356.199219 498.308594 334.84375 C 449.371094 357.433594 406.035156 381.601562 370.417969 403.449219 C 324.96875 474.390625 256.363281 539.527344 198.652344 570.601562 Z M 522.945312 323.910156 C 551.96875 342.628906 578.992188 364.636719 601.335938 390.238281 C 619.964844 370.035156 664.671875 318.960938 690.03125 268.246094 C 630.40625 281.96875 573.976562 301.835938 522.945312 323.910156 Z M 417.351562 295.246094 C 416.609375 298.914062 415.753906 302.671875 414.808594 306.496094 C 410.085938 325.371094 402.570312 344.765625 392.941406 364.117188 C 417.601562 350.03125 444.890625 335.496094 474.34375 321.414062 C 455.488281 311.421875 436.253906 302.738281 417.351562 295.246094 Z M 310.453125 240.121094 C 335.453125 245.023438 366.253906 253.035156 399.128906 264.554688 C 402.546875 223.085938 391.34375 197.683594 384.570312 186.433594 C 353.609375 202.589844 326.496094 225.316406 310.453125 240.121094 Z M 310.453125 240.121094 "/>
<path style=" stroke:none;fill-rule:nonzero;fill:rgb(71.759033%,10.978699%,10.978699%);fill-opacity:1;" d="M 310.5 348.75 C 310.5 447.300781 228.375 525.601562 169.199219 582.75 C 159.300781 592.425781 125.773438 594 125.773438 594 C 134.101562 585.449219 143.550781 576.449219 153.675781 566.773438 C 209.925781 512.324219 288 437.851562 288 348.75 C 288 243.226562 245.476562 201.601562 211.949219 168.300781 C 197.101562 153.226562 184.5 138.824219 176.851562 121.273438 L 183.824219 118.351562 C 191.476562 121.726562 200.25 125.550781 207 128.476562 C 212.398438 136.351562 219.601562 144 227.925781 152.324219 C 262.351562 186.75 310.5 234 310.5 348.75 Z M 310.5 348.75 "/>
<path style=" stroke:none;fill-rule:nonzero;fill:rgb(71.759033%,10.978699%,10.978699%);fill-opacity:1;" d="M 870.414062 377.863281 C 870.414062 377.863281 856.800781 379.800781 852.976562 380.25 C 655.875 402.074219 452.476562 458.773438 336.148438 505.351562 C 294.074219 522.226562 250.425781 542.699219 210.601562 565.648438 C 210.375 565.875 210.148438 565.875 209.699219 566.101562 C 186.300781 579.601562 129.375 607.5 83.25 632.023438 C 150.75 560.25 277.199219 504.898438 327.601562 484.648438 C 441.675781 438.976562 637.648438 383.851562 830.476562 360.226562 C 807.75 333.675781 752.175781 277.425781 642.824219 235.574219 C 578.925781 210.824219 481.726562 196.875 396 184.5 C 259.648438 164.925781 182.023438 151.875 174.601562 114.75 C 173.023438 107.324219 174.148438 99.898438 177.523438 92.699219 C 184.949219 104.851562 195.523438 113.398438 202.5 118.351562 C 205.875 120.601562 208.351562 121.949219 209.25 122.398438 L 209.476562 122.625 C 241.425781 139.5 327.601562 151.875 399.375 162.226562 C 486.226562 174.824219 584.550781 189 650.925781 214.425781 C 805.5 274.050781 858.824219 359.324219 861.074219 362.925781 C 863.101562 366.300781 870.414062 377.863281 870.414062 377.863281 Z M 870.414062 377.863281 "/>
</g>
</svg>
