<?xml version="1.0" encoding="UTF-8"?>
<svg xmlns="http://www.w3.org/2000/svg" xmlns:xlink="http://www.w3.org/1999/xlink" width="900pt" height="899.99999pt" viewBox="0 0 900 899.99999" version="1.2">
<g id="surface1">
<path style=" stroke:none;fill-rule:nonzero;fill:rgb(81.17981%,39.219666%,60.389709%);fill-opacity:1;" d="M 773.058594 505.15625 C 741.886719 505.339844 714.90625 512.816406 692.273438 523.960938 C 683.917969 507.414062 675.558594 492.96875 674.167969 482.175781 C 672.59375 469.640625 670.683594 461.980469 672.59375 447.003906 C 674.5 432.03125 683.21875 410.792969 683.21875 409.050781 C 683.054688 407.476562 681.296875 399.816406 663.371094 399.648438 C 645.445312 399.480469 629.941406 403.128906 628.203125 407.839844 C 625.089844 416.546875 622.589844 425.429688 620.707031 434.484375 C 617.574219 450.851562 584.84375 508.835938 566.207031 539.308594 C 560.105469 527.472656 554.882812 517.023438 553.835938 508.667969 C 552.261719 496.132812 550.355469 488.46875 552.261719 473.496094 C 554.171875 458.523438 562.890625 437.28125 562.890625 435.542969 C 562.722656 433.96875 560.96875 426.308594 543.042969 426.140625 C 525.117188 425.972656 509.613281 429.621094 507.875 434.332031 C 506.132812 439.039062 504.210938 450.179688 500.378906 460.976562 C 496.714844 471.769531 453.191406 568.585938 441.878906 593.828125 C 436.128906 606.710938 431.085938 616.988281 427.421875 623.953125 C 423.757812 630.917969 427.253906 624.484375 426.90625 625.179688 L 422.03125 634.414062 L 422.03125 634.582031 C 419.59375 638.941406 416.976562 643.121094 415.761719 643.121094 C 414.898438 643.121094 413.144531 631.449219 416.113281 615.429688 C 422.5625 581.820312 438.230469 529.40625 438.050781 527.5 C 438.050781 526.636719 441.015625 517.402344 427.949219 512.691406 C 415.234375 507.984375 410.707031 515.828125 409.664062 515.828125 C 408.617188 515.828125 407.742188 518.613281 407.742188 518.613281 C 407.742188 518.613281 421.851562 459.582031 380.746094 459.582031 C 354.980469 459.582031 319.460938 487.621094 301.871094 513.207031 L 213.0625 561.789062 L 211.140625 559.703125 C 161.371094 506.550781 69.261719 468.941406 73.09375 397.558594 C 74.484375 371.609375 83.539062 303.179688 249.984375 220.304688 C 386.320312 152.402344 495.503906 171.023438 514.488281 212.460938 C 541.484375 271.660156 456.15625 381.695312 314.417969 397.574219 C 260.445312 403.671875 232.058594 382.765625 224.914062 374.9375 C 217.421875 366.75 216.375 366.402344 213.589844 367.976562 C 209.0625 370.414062 211.847656 377.726562 213.589844 382.085938 C 217.769531 393.058594 235.179688 412.558594 264.777344 422.308594 C 290.726562 430.847656 354.101562 435.542969 430.722656 405.945312 C 516.566406 372.683594 583.601562 280.40625 563.921875 203.285156 C 543.890625 124.753906 413.660156 98.984375 290.546875 142.695312 C 217.253906 168.78125 138 209.507812 80.894531 262.96875 C 12.851562 326.34375 2.058594 381.722656 6.570312 404.703125 C 22.421875 486.714844 135.410156 540.171875 180.675781 579.703125 L 174.410156 583.183594 C 151.773438 594.328125 65.585938 639.429688 43.996094 687.132812 C 19.621094 741.105469 47.828125 779.941406 66.628906 785.164062 C 124.78125 801.363281 184.328125 772.277344 216.542969 724.394531 C 248.578125 676.507812 244.75 614.355469 229.957031 585.972656 L 229.425781 584.925781 L 247.1875 574.480469 C 258.675781 567.683594 270 561.414062 279.917969 556.023438 C 274.347656 571.179688 270.335938 589.105469 268.246094 615.222656 C 265.808594 645.863281 278.34375 685.558594 294.890625 701.242188 C 302.203125 708.039062 310.910156 708.207031 316.3125 708.207031 C 335.464844 708.207031 344.171875 692.355469 353.753906 673.386719 C 365.59375 650.222656 376.039062 623.410156 376.039062 623.410156 C 376.039062 623.410156 362.972656 696.019531 398.671875 696.019531 C 411.738281 696.019531 424.789062 679.125 430.707031 670.417969 L 430.707031 670.585938 C 430.707031 670.585938 431.058594 670.058594 431.753906 668.84375 C 433.144531 666.757812 433.84375 665.53125 433.84375 665.53125 L 433.84375 665.183594 C 439.066406 656.128906 450.738281 635.402344 468.148438 601.109375 C 490.617188 556.886719 512.203125 501.523438 512.203125 501.523438 C 512.203125 501.523438 514.292969 515.101562 520.742188 537.386719 C 524.574219 550.621094 532.929688 565.078125 539.378906 579.171875 L 531.023438 590.664062 L 531.191406 590.847656 C 526.734375 596.753906 522.144531 602.554688 517.429688 608.257812 C 499.667969 629.496094 478.429688 653.707031 475.644531 660.667969 C 472.328125 668.859375 473.023438 674.945312 479.472656 679.820312 C 484.179688 683.304688 492.539062 684 501.410156 683.304688 C 517.429688 682.257812 528.570312 678.246094 534.144531 675.808594 C 544.246094 672.207031 553.644531 667.273438 562.347656 661.003906 C 579.757812 648.121094 590.386719 629.832031 589.339844 605.457031 C 588.8125 592.042969 584.464844 578.8125 579.0625 566.277344 L 583.769531 559.3125 C 611.277344 519.085938 632.519531 474.863281 632.519531 474.863281 C 632.519531 474.863281 634.609375 488.441406 641.058594 510.730469 C 644.375 522.050781 650.988281 534.40625 656.910156 546.59375 C 631.140625 567.667969 614.941406 592.042969 609.371094 608.0625 C 599.089844 637.660156 607.101562 651.074219 622.253906 654.207031 C 629.050781 655.601562 638.800781 652.464844 646.113281 649.332031 C 655.167969 646.363281 666.144531 641.324219 676.242188 633.828125 C 693.652344 620.945312 710.367188 603.003906 709.503906 578.8125 C 708.972656 567.667969 706.019531 556.691406 702.011719 546.246094 C 723.949219 537.191406 752.332031 531.96875 788.367188 536.316406 C 865.851562 545.367188 881.171875 593.769531 878.207031 613.96875 C 875.238281 634.164062 859.054688 645.304688 853.648438 648.789062 C 848.246094 652.105469 846.503906 653.316406 847.035156 655.753906 C 847.730469 659.417969 850.167969 659.234375 854.875 658.539062 C 861.324219 657.492188 895.617188 641.992188 897.011719 604.734375 C 899.097656 556.847656 853.648438 504.613281 773.046875 505.144531 Z M 175.46875 706.632812 C 149.867188 734.671875 113.832031 745.285156 98.511719 736.230469 C 81.964844 726.648438 88.414062 685.394531 119.933594 655.613281 C 139.085938 637.507812 163.992188 620.792969 180.355469 610.511719 L 196.207031 600.929688 C 197.253906 600.234375 197.949219 599.886719 197.949219 599.886719 C 199.175781 599.1875 200.566406 598.3125 201.960938 597.449219 C 213.632812 639.929688 202.488281 677.1875 175.496094 706.621094 Z M 362.667969 579.355469 C 353.78125 601.125 334.976562 657.007812 323.667969 653.871094 C 313.917969 651.253906 308 608.953125 321.746094 567.152344 C 328.710938 546.078125 343.515625 521.007812 352.222656 511.257812 C 366.332031 495.589844 381.652344 490.363281 385.484375 496.800781 C 390.007812 505.15625 368.238281 565.746094 362.667969 579.339844 Z M 517.109375 653.175781 C 513.277344 655.097656 509.796875 656.492188 508.222656 655.445312 C 506.996094 654.75 509.796875 652.132812 509.796875 652.132812 C 509.796875 652.132812 529.128906 631.40625 536.789062 621.835938 L 551.941406 602.503906 L 551.941406 604.59375 C 551.941406 629.664062 527.917969 646.378906 517.121094 653.175781 Z M 636.195312 626.015625 C 633.410156 623.925781 633.757812 617.476562 643.160156 597.28125 C 646.824219 589.273438 655.183594 575.859375 669.625 563.15625 C 671.367188 568.378906 672.410156 573.433594 672.246094 578.128906 C 672.0625 609.46875 649.777344 621.140625 636.195312 626.015625 Z M 636.195312 626.015625 "/>
</g>
</svg>
